<?xml version="1.0" encoding="utf-8"?>
<!-- Generator: Adobe Illustrator 17.1.0, SVG Export Plug-In . SVG Version: 6.00 Build 0)  -->
<!DOCTYPE svg PUBLIC "-//W3C//DTD SVG 1.1//EN" "http://www.w3.org/Graphics/SVG/1.1/DTD/svg11.dtd">
<svg version="1.1" id="Capa_1" xmlns="http://www.w3.org/2000/svg" xmlns:xlink="http://www.w3.org/1999/xlink" x="0px" y="0px"
	 viewBox="0 8.8 512 494.5" enable-background="new 0 8.8 512 494.5" xml:space="preserve">
<g>
	<g>
		<path fill="#cccccc" d="M323.1,443.2H60V68.8h263c5.8,0,10.6-4.7,10.6-10.6V19.3c0-5.8-4.7-10.6-10.6-10.6H10.6
			C4.7,8.8,0,13.5,0,19.3v473.3c0,5.8,4.7,10.6,10.6,10.6h312.5c5.8,0,10.6-4.7,10.6-10.6v-38.9
			C333.6,447.9,328.9,443.2,323.1,443.2z"/>
		<path fill="#cccccc" d="M508.9,248.5L366.7,106.4c-4-4-11-4-14.9,0L318,140.1c-4.1,4.1-4.1,10.8,0,14.9l64.2,64.2h-278
			c-5.8,0-10.6,4.7-10.6,10.6v52.3c0,5.8,4.7,10.6,10.6,10.6h278L318.1,357c-4.1,4.1-4.1,10.8,0,14.9l33.7,33.7c2,2,4.7,3.1,7.5,3.1
			c2.8,0,5.5-1.1,7.5-3.1l142.2-142.2c2-2,3.1-4.7,3.1-7.5C512,253.2,510.9,250.5,508.9,248.5z"/>
	</g>
</g>
</svg>
